<?xml version="1.0" encoding="utf-8"?>
<!-- Generator: Adobe Illustrator 19.0.0, SVG Export Plug-In . SVG Version: 6.00 Build 0)  -->
<svg version="1.1" id="Слой_1" xmlns="http://www.w3.org/2000/svg" xmlns:xlink="http://www.w3.org/1999/xlink" x="0px" y="0px"
	 viewBox="0 0 36 36" style="enable-background:new 0 0 36 36;" xml:space="preserve">
<style type="text/css">
	.st0{fill:#D2DFE5;}
</style>
<path class="st0" d="M18,0C8.1,0,0,8.1,0,18s8.1,18,18,18s18-8.1,18-18S27.9,0,18,0z M10,22.5c0,0.8-0.7,1.5-1.5,1.5S7,23.3,7,22.5
	v-7C7,14.7,7.7,14,8.5,14s1.5,0.7,1.5,1.5V22.5z M26,24.2c0,1.2-1.4,1.9-3,2.4v2.9c0,0.8-0.7,1.5-1.5,1.5S20,30.3,20,29.5v-2.6
	C18.9,27,18,27,18,27s-0.6,0-1,0v2.5c0,0.8-0.7,1.5-1.5,1.5S14,30.3,14,29.5v-2.8c-2.8-0.8-3-2.5-3-2.5V15c0-0.5,0.5-1,1-1h13
	c0.6,0,1,0.4,1,1V24.2z M11,12.9c0-2.3,1-4.6,2.8-6.1C14,6.6,12.6,5,13.1,4c0.8-0.1,1.8,2,2,1.8c1-0.6,2.2-0.9,3.4-0.9
	c1.1,0,2.3,0.3,3.2,0.8c0.2,0.1,1.2-1.8,2.2-1.7c0.2,1.9-1.1,2.4-0.9,2.6c1.9,1.6,3,3.9,3,6.3C26,12.9,11,13,11,12.9z M30,22.5
	c0,0.8-0.7,1.5-1.5,1.5S27,23.3,27,22.5v-7c0-0.8,0.7-1.5,1.5-1.5s1.5,0.7,1.5,1.5V22.5z"/>
<circle class="st0" cx="15" cy="10" r="1"/>
<circle class="st0" cx="22" cy="10" r="1"/>
</svg>
