<?xml version="1.0" encoding="utf-8"?>
<!-- Generator: Adobe Illustrator 19.0.0, SVG Export Plug-In . SVG Version: 6.00 Build 0)  -->
<svg version="1.1" id="Слой_1" xmlns="http://www.w3.org/2000/svg" xmlns:xlink="http://www.w3.org/1999/xlink" x="0px" y="0px"
	 viewBox="0 0 119.9 20" style="enable-background:new 0 0 119.9 20;" xml:space="preserve">
<style type="text/css">
	.st0{fill:#0A0D11;}
</style>
<polygon class="st0" points="61.9,0.9 54.7,0.3 55.7,20 69.6,19.3 70,14.7 60.1,15.6 "/>
<path class="st0" d="M49.2,14.4l-6.6,0.1l-0.8-14l-6.2,0.3l1.6,13c-0.1,3.7,1.4,5.6,4.6,5.8l6.7-0.2c0.1,0,0.2,0,0.3,0h0.3
	c2.6,0,3.9-2,3.9-5.9l1-12l-3.7,0.3L49.2,14.4z"/>
<path class="st0" d="M30.4,4.6h-6.5c-1.1,0.1-2.1,0.7-2.8,1.6c-0.7,0.9-1.1,1.9-1.2,3l0.3,5.6c0.6,2.8,1.9,4.3,4.1,4.4l5.8,0.3
	c1,0,2-0.5,2.6-1.3c0.6-0.9,1-2,1-3.2L34,9.5C34.2,6.5,33,4.9,30.4,4.6z M22.2,16.4l0.1-6l6.9-0.5l0.5,6.5H22.2z"/>
<polygon class="st0" points="70.7,19.4 72.8,19 74.2,4.8 70.6,4.6 "/>
<polygon class="st0" points="85.5,4 80.7,10.8 80.4,4.4 74.7,5.1 76.7,19.3 79,19.4 78.7,16.2 81.8,14.1 84.7,19.8 89.3,19.1 
	83.7,11.5 90.1,4.6 "/>
<polygon class="st0" points="109.5,19.4 114,19.3 114.3,16.3 109.4,16.2 "/>
<path class="st0" d="M105.1,9.9c0.1-1.4-0.3-2.8-1.2-3.9c-0.9-1-2.1-1.5-3.5-1.4l-4.1,0.1c-3.3,0.1-4.9,1.4-4.9,4.1
	c0,0.1,0,0.2,0,0.3s0,0.2,0,0.3l0.5,4.9c-0.2,3.1,1.5,4.7,5,4.7l6.7,0.1l0.3-3.6l-7.3,0.4c-0.6-0.1-1-0.7-1-1.8l4.3,0.3
	C103.3,14.3,105,12.8,105.1,9.9z M93.9,12.2c0-0.1,0-0.2,0-0.3s0-0.2,0-0.3c0-1,0.4-1.5,1.3-1.5l5,0.1c0.2,0,0.4,0.1,0.6,0.3
	c0.1,0.2,0.2,0.4,0.2,0.7c0,0.2-0.1,0.4-0.2,0.6c-0.1,0.2-0.4,0.3-0.6,0.2L93.9,12.2z"/>
<path class="st0" d="M118.6,2.4c-1.1-1.2-2.6-1.8-4.2-1.7l-7.6,0.4l-0.3,6.6l8.4-0.2c0.6-0.1,1.1,0.1,1.7,0.3c0.3,0.2,0.5,0.6,0.4,1
	c-0.1,0.8-0.8,1.2-2,1.1c-1.6-0.2-3.3,0.2-4.6,1.1c-0.9,0.6-1.4,1.7-1.3,2.7c0,0.4,0.1,0.8,0.1,1.3l4.7,0.1v-1
	c-0.1-0.5,0.1-1,0.5-1.4c0.4-0.3,0.8-0.6,1.3-0.8s1-0.4,1.6-0.5c0.5-0.1,0.9-0.3,1.3-0.7c0.8-0.9,1.3-2.1,1.2-3.3
	C120,5.1,119.6,3.4,118.6,2.4z"/>
<path class="st0" d="M13,0L0,1.2v18.2l13.3,0.1c2.8,0,4.3-1.8,4.6-5.6l0.5-7.1c0-0.1,0-0.3,0-0.4V6C18.3,2.1,16.5,0.1,13,0z
	 M12.4,15.6L2.3,15.5V7.9l10.1-1.1V15.6z"/>
</svg>
