<?xml version="1.0" encoding="utf-8"?>
<!-- Generator: Adobe Illustrator 19.0.0, SVG Export Plug-In . SVG Version: 6.00 Build 0)  -->
<svg version="1.1" id="Слой_1" xmlns="http://www.w3.org/2000/svg" xmlns:xlink="http://www.w3.org/1999/xlink" x="0px" y="0px"
	 viewBox="0 0 22.5 24" style="enable-background:new 0 0 22.5 24;" xml:space="preserve">
<style type="text/css">
	.st0{fill:#D2DFE5;}
</style>
<path class="st0" d="M11.6,0C5.5,0,0.6,4.9,0.7,11c0,3.1,1.3,6,3.5,8C4,19.9,3.3,22.2,0,24c0,0,6.2,0.3,8.2-2.6
	c1.1,0.3,2.2,0.5,3.4,0.5c6,0,10.9-4.9,10.9-11C22.5,4.9,17.6,0,11.6,0z M6.4,12.5c-0.9,0.2-1.7-0.6-1.7-1.6s0.8-1.8,1.7-1.8
	s1.7,0.8,1.7,1.7C8.1,11.8,7.3,12.5,6.4,12.5z M13.1,11.4c-0.2,0.7-0.9,1.2-1.7,1.2c-1,0-1.7-0.8-1.7-1.7c0.1-0.5,0.4-1,0.7-1.3
	c0.3-0.2,0.7-0.4,1.1-0.4c1,0,1.7,0.8,1.7,1.7C13.2,11.1,13.2,11.3,13.1,11.4z M16.7,12.5c-1,0.2-1.7-0.6-1.7-1.6s0.8-1.8,1.7-1.8
	c1,0,1.7,0.8,1.7,1.7C18.4,11.8,17.6,12.5,16.7,12.5z"/>
</svg>
