<?xml version="1.0" encoding="utf-8"?>
<!-- Generator: Adobe Illustrator 19.0.0, SVG Export Plug-In . SVG Version: 6.00 Build 0)  -->
<svg version="1.1" id="Слой_1" xmlns="http://www.w3.org/2000/svg" xmlns:xlink="http://www.w3.org/1999/xlink" x="0px" y="0px"
	 viewBox="0 0 18 18" style="enable-background:new 0 0 18 18;" xml:space="preserve">
<style type="text/css">
	.st0{fill:#B9B9B6;}
</style>
<path class="st0" d="M9,0C4,0,0,4,0,9s4,9,9,9s9-4,9-9S14,0,9,0z M9,16c-3.9,0-7-3.1-7-7s3.1-7,7-7c0.2,0,0.4,0,0.5,0
	c3.7,0.1,6.6,3.3,6.5,7C16,12.9,12.9,16,9,16z"/>
<path class="st0" d="M9,4C6.2,4,4,6.2,4,9s2.2,5,5,5s5-2.2,5-5S11.8,4,9,4z M9,12.5c-1.9,0-3.5-1.6-3.5-3.5S7.1,5.5,9,5.5l0,0
	c1.9,0,3.5,1.6,3.5,3.5S10.9,12.5,9,12.5z"/>
</svg>
