<?xml version="1.0" encoding="utf-8"?>
<!-- Generator: Adobe Illustrator 19.0.0, SVG Export Plug-In . SVG Version: 6.00 Build 0)  -->
<svg version="1.1" id="Слой_1" xmlns="http://www.w3.org/2000/svg" xmlns:xlink="http://www.w3.org/1999/xlink" x="0px" y="0px"
	 viewBox="0 0 16.1 32" style="enable-background:new 0 0 16.1 32;" xml:space="preserve">
<style type="text/css">
	.st0{fill:#090C10;}
</style>
<path class="st0" d="M15.9,11.2c-0.1-0.1-0.2-0.2-0.4-0.2H11V7.4c-0.1-0.7,0.5-1.4,1.2-1.5c0.1,0,0.3,0,0.4,0h2.9
	c0.3,0,0.5-0.2,0.5-0.5l0,0V0.5C16,0.2,15.8,0,15.5,0l0,0h-4.1c0,0-0.1,0-0.2,0C9.3,0,7.4,0.7,6,2C4.6,3.2,3.9,5,4,6.9V11H0.5
	C0.2,11,0,11.2,0,11.5v5C0,16.8,0.2,17,0.5,17H4v14.5C4,31.8,4.2,32,4.5,32l0,0h6c0.3,0,0.5-0.2,0.5-0.5V17h3.9
	c0.3,0,0.5-0.2,0.5-0.5l0.7-5C16,11.4,16,11.3,15.9,11.2z"/>
</svg>
