<?xml version="1.0" encoding="utf-8"?>
<!-- Generator: Adobe Illustrator 19.0.0, SVG Export Plug-In . SVG Version: 6.00 Build 0)  -->
<svg version="1.1" id="Слой_1" xmlns="http://www.w3.org/2000/svg" xmlns:xlink="http://www.w3.org/1999/xlink" x="0px" y="0px"
	 viewBox="0 0 36 36" style="enable-background:new 0 0 36 36;" xml:space="preserve">
<style type="text/css">
	.st0{fill:#090C10;}
</style>
<path class="st0" d="M18,0C8.1,0,0,8.1,0,18s8.1,18,18,18s18-8.1,18-18S27.9,0,18,0z M18.9,6.9c1-1.2,2.4-1.9,3.9-2.1
	c0.2,1.5-0.3,3-1.2,4.1c-0.9,1.2-2.4,2-3.9,2C17.5,9.4,17.9,8,18.9,6.9z M27.3,26.5c-1.1,1.6-2.6,3.7-4.5,3.7
	c-1.7,0-2.1-1.1-4.4-1.1s-2.7,1.1-4.4,1.1c-1.9,0-3.3-1.8-4.4-3.5c-3-4.6-3.3-9.9-1.5-12.8c1.1-1.9,3.1-3.1,5.3-3.2
	c2,0,3.2,1.1,4.9,1.1c1.6,0,2.6-1.1,4.9-1.1c1.9,0.1,3.7,1,4.9,2.6l0,0c-1.2,0.6-2.1,1.7-2.5,2.9c-1.1,2.9,0.4,6.1,3.3,7.2
	C28.5,24.5,27.9,25.6,27.3,26.5z"/>
</svg>
