<?xml version="1.0" encoding="utf-8"?>
<!-- Generator: Adobe Illustrator 19.0.0, SVG Export Plug-In . SVG Version: 6.00 Build 0)  -->
<svg version="1.1" id="Слой_1" xmlns="http://www.w3.org/2000/svg" xmlns:xlink="http://www.w3.org/1999/xlink" x="0px" y="0px"
	 viewBox="0 0 36 35.8" style="enable-background:new 0 0 36 35.8;" xml:space="preserve">
<style type="text/css">
	.st0{fill:#D2DFE5;}
</style>
<path class="st0" d="M34.6,11c-1.8-4.3-5.3-7.7-9.6-9.6c-2.2-1-4.6-1.4-7-1.4s-4.8,0.5-7,1.4C6.7,3.2,3.3,6.7,1.4,11
	c-1.6,3.9-1.9,8.3-0.6,12.3C1.3,24.9,2.1,26.5,3,28c0.9,1.4,2.1,2.7,3.4,3.8c1.3,1.1,2.8,2,4.4,2.7c0-0.7,0-1.3,0-2
	c0-0.7,0.1-1.4,0.3-2.1c0.1-0.4,0.2-1,0.4-1.8c0.2-0.7,0.4-1.7,0.7-3c0.3-1.3,0.7-3,1.2-5.1c-0.2-0.3-0.3-0.6-0.3-0.9
	C13,19.3,13,19,12.9,18.7s-0.1-0.7-0.1-1c0-0.6,0.1-1.2,0.3-1.8c0.2-0.5,0.4-1,0.7-1.5c0.3-0.4,0.7-0.8,1.1-1s0.9-0.3,1.3-0.3
	c0.7-0.1,1.4,0.2,1.8,0.8c0.4,0.6,0.6,1.2,0.6,1.9c0,0.5-0.1,0.9-0.2,1.4s-0.3,1-0.4,1.6s-0.4,1.1-0.5,1.7s-0.3,1.2-0.5,1.7
	c-0.1,0.4-0.1,0.9,0,1.3s0.3,0.8,0.6,1.1c0.3,0.3,0.6,0.6,1,0.7c0.4,0.2,0.9,0.3,1.3,0.3c0.8,0,1.7-0.3,2.3-0.8
	c0.7-0.5,1.4-1.3,1.8-2.1c0.5-1,0.9-2,1.2-3.1c0.3-1.2,0.4-2.4,0.4-3.7c0-0.9-0.2-1.9-0.5-2.7c-0.3-0.8-0.8-1.6-1.5-2.2
	s-1.5-1.1-2.4-1.4c-1-0.4-2.1-0.5-3.2-0.5c-1.3,0-2.5,0.2-3.7,0.7c-1,0.4-2,1.1-2.8,1.9s-1.4,1.7-1.8,2.7s-0.6,2.2-0.6,3.3
	c0,0.7,0.1,1.4,0.3,2c0.2,0.5,0.5,1.1,0.9,1.5c0.3,0.3,0.4,0.7,0.2,1c-0.1,0.2-0.1,0.4-0.2,0.7c0,0.2-0.1,0.5-0.2,0.7
	c0,0.2-0.1,0.4-0.3,0.5c-0.2,0.1-0.4,0.1-0.6,0C8,23.6,7,22.7,6.4,21.4c-0.6-1.3-0.9-2.8-0.9-4.2c0-1.3,0.3-2.7,0.8-3.9
	c0.6-1.4,1.4-2.6,2.4-3.6c1.1-1.1,2.5-2.1,4-2.7c1.8-0.7,3.7-1.1,5.6-1c1.6,0,3.2,0.3,4.7,0.9c1.3,0.5,2.6,1.3,3.6,2.3
	c1,0.9,1.8,2.1,2.3,3.3c0.5,1.2,0.8,2.5,0.8,3.8c0,1.7-0.2,3.3-0.7,4.9c-0.4,1.4-1.1,2.7-2,3.9c-0.8,1.1-1.9,2-3.1,2.6
	s-2.6,0.9-4,0.9c-0.9,0-1.9-0.2-2.7-0.7c-0.7-0.3-1.3-0.9-1.7-1.6c-0.3,1-0.5,1.9-0.7,2.5s-0.3,1.1-0.4,1.5s-0.2,0.8-0.2,0.9
	c-0.2,0.7-0.5,1.4-0.8,2c-0.3,0.7-0.7,1.3-1,1.8c0.8,0.2,1.6,0.4,2.5,0.6c0.9,0.1,1.7,0.2,2.6,0.2c2.4,0,4.8-0.5,7-1.4
	c4.3-1.8,7.7-5.3,9.6-9.6C36.5,20.5,36.5,15.5,34.6,11z"/>
</svg>
