<?xml version="1.0" encoding="utf-8"?>
<!-- Generator: Adobe Illustrator 19.0.0, SVG Export Plug-In . SVG Version: 6.00 Build 0)  -->
<svg version="1.1" id="Слой_1" xmlns="http://www.w3.org/2000/svg" xmlns:xlink="http://www.w3.org/1999/xlink" x="0px" y="0px"
	 viewBox="0 0 36 36" style="enable-background:new 0 0 36 36;" xml:space="preserve">
<style type="text/css">
	.st0{fill:#D2DFE5;}
</style>
<path class="st0" d="M18,0C8.1,0,0,8.1,0,18s8.1,18,18,18l0,0c9.9,0,18-8.1,18-18C36,8,28,0,18,0z M30,24c0,3.3-2.7,6-6.1,6.1H12
	c-3.3,0-6-2.7-6.1-6.1V12.1c0-3.3,2.7-6,6.1-6.1h11.9c3.3,0,6,2.7,6.1,6.1V24z"/>
<path class="st0" d="M18,14.5c-1.9,0-3.5,1.6-3.5,3.5s1.6,3.5,3.5,3.5l0,0c1.9,0,3.5-1.6,3.5-3.5l0,0C21.5,16.1,20,14.5,18,14.5z"/>
<path class="st0" d="M24.4,8.1H11.7c-2,0-3.7,1.6-3.7,3.7v12.7c0,2,1.6,3.7,3.7,3.7h12.7l0,0c2,0,3.7-1.6,3.7-3.7V11.8
	C28,9.7,26.4,8.1,24.4,8.1z M18.1,24.1c-3.3,0-6-2.7-6-6s2.7-6,6-6l0,0c3.3,0,6,2.7,6,6S21.4,24.1,18.1,24.1z M24.5,13
	c-0.8,0-1.5-0.7-1.5-1.5s0.7-1.5,1.5-1.5l0,0c0.8,0,1.5,0.7,1.5,1.5S25.3,13,24.5,13z"/>
</svg>
