<?xml version="1.0" encoding="utf-8"?>
<!-- Generator: Adobe Illustrator 19.0.0, SVG Export Plug-In . SVG Version: 6.00 Build 0)  -->
<svg version="1.1" id="Слой_1" xmlns="http://www.w3.org/2000/svg" xmlns:xlink="http://www.w3.org/1999/xlink" x="0px" y="0px"
	 viewBox="-286 408.9 22.5 24" style="enable-background:new -286 408.9 22.5 24;" xml:space="preserve">
<style type="text/css">
	.st0{fill:#D2DFE5;}
</style>
<path class="st0" d="M-286,419.8c0,6.1,4.9,11,10.9,11c1.2,0,2.3-0.2,3.4-0.5c2,2.9,8.2,2.6,8.2,2.6c-3.3-1.8-4-4.1-4.2-5
	c2.2-2,3.5-4.9,3.5-8c0.1-6.1-4.8-11-10.9-11C-281.1,408.9-286,413.8-286,419.8z M-271.6,419.7c0-0.9,0.8-1.7,1.7-1.7
	s1.7,0.8,1.7,1.8s-0.8,1.8-1.7,1.6C-270.8,421.4-271.6,420.7-271.6,419.7z M-276.7,419.8c0-0.9,0.7-1.7,1.7-1.7
	c0.4,0,0.8,0.2,1.1,0.4c0.3,0.3,0.6,0.8,0.7,1.3c0,0.9-0.7,1.7-1.7,1.7c-0.8,0-1.5-0.5-1.7-1.2C-276.7,420.2-276.7,420-276.7,419.8z
	 M-281.9,419.7c0-0.9,0.7-1.7,1.7-1.7c0.9,0,1.7,0.8,1.7,1.8s-0.7,1.8-1.7,1.6C-281.1,421.4-281.9,420.7-281.9,419.7z"/>
</svg>
