<?xml version="1.0" encoding="utf-8"?>
<!-- Generator: Adobe Illustrator 19.0.0, SVG Export Plug-In . SVG Version: 6.00 Build 0)  -->
<svg version="1.1" id="Слой_1" xmlns="http://www.w3.org/2000/svg" xmlns:xlink="http://www.w3.org/1999/xlink" x="0px" y="0px"
	 viewBox="0 0 36 36" style="enable-background:new 0 0 36 36;" xml:space="preserve">
<style type="text/css">
	.st0{fill:#D2DFE5;}
</style>
<path class="st0" d="M18,0C8.1,0,0,8.1,0,18s8.1,18,18,18s18-8.1,18-18S27.9,0,18,0z M28.3,12.7c0,0.2,0,0.4,0,0.7
	c0,8.4-6.8,15.2-15.2,15.2c-2.9,0-5.7-0.8-8.2-2.4c0.4,0.1,0.9,0.1,1.3,0.1c2.4,0,4.7-0.8,6.6-2.3c-2.3,0-4.3-1.5-5-3.7
	c0.3,0.1,0.7,0.1,1,0.1c0.5,0,1-0.1,1.4-0.2c-2.5-0.5-4.3-2.7-4.3-5.2v-0.1c0.7,0.4,1.6,0.6,2.4,0.7C5.9,14,5.2,10.9,6.6,8.5
	c2.7,3.3,6.7,5.4,11,5.6c-0.7-2.9,1.1-5.7,4-6.4c1.9-0.4,3.8,0.2,5.1,1.6C27.9,9.1,29,8.6,30.1,8c-0.4,1.2-1.2,2.3-2.3,2.9
	c1.1-0.1,2.1-0.4,3.1-0.8C30.3,11,29.4,11.9,28.3,12.7z"/>
</svg>
